<mxfile host="app.diagrams.net" agent="Mozilla/5.0 (Windows NT 10.0; Win64; x64) AppleWebKit/537.36 (KHTML, like Gecko) Chrome/131.0.0.0 Safari/537.36" version="26.0.6">
  <diagram name="第 1 页" id="_WQ72G3VgU9D0IBDOENA">
    <mxGraphModel dx="999" dy="995" grid="1" gridSize="10" guides="1" tooltips="1" connect="1" arrows="1" fold="1" page="1" pageScale="1" pageWidth="827" pageHeight="1169" math="0" shadow="0">
      <root>
        <mxCell id="0" />
        <mxCell id="1" parent="0" />
        <mxCell id="7OgMWqqzBkoQU9yhxU0c-3" value="" style="edgeStyle=orthogonalEdgeStyle;rounded=0;orthogonalLoop=1;jettySize=auto;html=1;" edge="1" parent="1" source="7OgMWqqzBkoQU9yhxU0c-1" target="7OgMWqqzBkoQU9yhxU0c-2">
          <mxGeometry relative="1" as="geometry" />
        </mxCell>
        <mxCell id="7OgMWqqzBkoQU9yhxU0c-1" value="开始" style="ellipse;whiteSpace=wrap;html=1;" vertex="1" parent="1">
          <mxGeometry x="180" y="140" width="120" height="80" as="geometry" />
        </mxCell>
        <mxCell id="7OgMWqqzBkoQU9yhxU0c-5" value="" style="edgeStyle=orthogonalEdgeStyle;rounded=0;orthogonalLoop=1;jettySize=auto;html=1;" edge="1" parent="1" source="7OgMWqqzBkoQU9yhxU0c-2" target="7OgMWqqzBkoQU9yhxU0c-4">
          <mxGeometry relative="1" as="geometry" />
        </mxCell>
        <mxCell id="7OgMWqqzBkoQU9yhxU0c-2" value="意向协议" style="whiteSpace=wrap;html=1;" vertex="1" parent="1">
          <mxGeometry x="180" y="310" width="120" height="60" as="geometry" />
        </mxCell>
        <mxCell id="7OgMWqqzBkoQU9yhxU0c-11" value="" style="edgeStyle=orthogonalEdgeStyle;rounded=0;orthogonalLoop=1;jettySize=auto;html=1;" edge="1" parent="1" source="7OgMWqqzBkoQU9yhxU0c-4" target="7OgMWqqzBkoQU9yhxU0c-10">
          <mxGeometry relative="1" as="geometry" />
        </mxCell>
        <mxCell id="7OgMWqqzBkoQU9yhxU0c-12" value="通过" style="edgeLabel;html=1;align=center;verticalAlign=middle;resizable=0;points=[];" vertex="1" connectable="0" parent="7OgMWqqzBkoQU9yhxU0c-11">
          <mxGeometry x="-0.2444" relative="1" as="geometry">
            <mxPoint as="offset" />
          </mxGeometry>
        </mxCell>
        <mxCell id="7OgMWqqzBkoQU9yhxU0c-4" value="审批" style="rhombus;whiteSpace=wrap;html=1;" vertex="1" parent="1">
          <mxGeometry x="200" y="440" width="80" height="80" as="geometry" />
        </mxCell>
        <mxCell id="7OgMWqqzBkoQU9yhxU0c-9" value="" style="endArrow=classic;html=1;rounded=0;exitX=1;exitY=0.5;exitDx=0;exitDy=0;entryX=1;entryY=0.5;entryDx=0;entryDy=0;" edge="1" parent="1" source="7OgMWqqzBkoQU9yhxU0c-4" target="7OgMWqqzBkoQU9yhxU0c-2">
          <mxGeometry width="50" height="50" relative="1" as="geometry">
            <mxPoint x="390" y="530" as="sourcePoint" />
            <mxPoint x="440" y="480" as="targetPoint" />
            <Array as="points">
              <mxPoint x="350" y="480" />
              <mxPoint x="350" y="340" />
            </Array>
          </mxGeometry>
        </mxCell>
        <mxCell id="7OgMWqqzBkoQU9yhxU0c-13" value="不通过" style="edgeLabel;html=1;align=center;verticalAlign=middle;resizable=0;points=[];" vertex="1" connectable="0" parent="7OgMWqqzBkoQU9yhxU0c-9">
          <mxGeometry x="-0.7231" relative="1" as="geometry">
            <mxPoint as="offset" />
          </mxGeometry>
        </mxCell>
        <mxCell id="7OgMWqqzBkoQU9yhxU0c-15" value="" style="edgeStyle=orthogonalEdgeStyle;rounded=0;orthogonalLoop=1;jettySize=auto;html=1;" edge="1" parent="1" source="7OgMWqqzBkoQU9yhxU0c-10" target="7OgMWqqzBkoQU9yhxU0c-14">
          <mxGeometry relative="1" as="geometry" />
        </mxCell>
        <mxCell id="7OgMWqqzBkoQU9yhxU0c-10" value="意向金确认" style="whiteSpace=wrap;html=1;" vertex="1" parent="1">
          <mxGeometry x="180" y="610" width="120" height="60" as="geometry" />
        </mxCell>
        <mxCell id="7OgMWqqzBkoQU9yhxU0c-14" value="审批" style="rhombus;whiteSpace=wrap;html=1;" vertex="1" parent="1">
          <mxGeometry x="200" y="740" width="80" height="80" as="geometry" />
        </mxCell>
        <mxCell id="7OgMWqqzBkoQU9yhxU0c-17" value="" style="endArrow=classic;html=1;rounded=0;entryX=1;entryY=0.5;entryDx=0;entryDy=0;" edge="1" parent="1" target="7OgMWqqzBkoQU9yhxU0c-10">
          <mxGeometry width="50" height="50" relative="1" as="geometry">
            <mxPoint x="280" y="780" as="sourcePoint" />
            <mxPoint x="330" y="730" as="targetPoint" />
            <Array as="points">
              <mxPoint x="360" y="780" />
              <mxPoint x="360" y="640" />
            </Array>
          </mxGeometry>
        </mxCell>
        <mxCell id="7OgMWqqzBkoQU9yhxU0c-18" value="不通过" style="edgeLabel;html=1;align=center;verticalAlign=middle;resizable=0;points=[];" vertex="1" connectable="0" parent="7OgMWqqzBkoQU9yhxU0c-17">
          <mxGeometry x="-0.7071" y="-3" relative="1" as="geometry">
            <mxPoint as="offset" />
          </mxGeometry>
        </mxCell>
      </root>
    </mxGraphModel>
  </diagram>
</mxfile>
